<?xml version="1.0" encoding="utf-8"?>
<!-- Generator: Adobe Illustrator 24.0.2, SVG Export Plug-In . SVG Version: 6.00 Build 0)  -->
<svg version="1.1" id="Capa_1" xmlns="http://www.w3.org/2000/svg" xmlns:xlink="http://www.w3.org/1999/xlink" x="0px" y="0px"
	 viewBox="0 0 390.3 289.3" style="enable-background:new 0 0 390.3 289.3;" xml:space="preserve">
<style type="text/css">
	.st0{fill:#422548;}
	.st1{fill:#6A4CCF;}
	.st2{fill:#FFFFFF;}
	.st3{fill:#32D3D7;}
	.st4{font-family:'Raleway-Black';}
	.st5{font-size:47.644px;}
</style>
<g>
	<g>
		<g>
			<path class="st0" d="M266.8,198.9H123.1c-7.2,0-13.1-5.9-13.1-13.1v0c0-7.2,5.9-13.1,13.1-13.1h143.6c7.2,0,13.1,5.9,13.1,13.1v0
				C279.9,193,274,198.9,266.8,198.9z"/>
			<g>
				<path class="st0" d="M233.6,192.3h-77.2c-12.3,0-22.3-10-22.3-22.3V82c0-10.7,8.7-19.3,19.3-19.3h83.1
					c10.7,0,19.3,8.7,19.3,19.3v88C255.9,182.3,245.9,192.3,233.6,192.3z"/>
				<rect x="134.1" y="142" class="st1" width="121.8" height="29.8"/>
				<path class="st2" d="M239.6,137.1h-1.1c-3,0-5.4-2.4-5.4-5.4V74.5c0-3,2.4-5.4,5.4-5.4h1.1c3,0,5.4,2.4,5.4,5.4v57.2
					C245,134.7,242.6,137.1,239.6,137.1z"/>
			</g>
		</g>
		<path class="st3" d="M132.3,46.6c3.5,3.5,19.2,5.6,19.2,5.6s-15.7,2-19.2,5.5c-3.5,3.5-5.6,19.2-5.6,19.2s-2-15.7-5.5-19.2
			c-3.5-3.5-19.2-5.6-19.2-5.6s15.7-2,19.2-5.5c3.5-3.5,5.6-19.2,5.6-19.2S128.7,43.1,132.3,46.6z"/>
		<path class="st3" d="M278.6,146.5c2.1,2.1,11.3,3.3,11.3,3.3s-9.3,1.2-11.4,3.3c-2.1,2.1-3.3,11.3-3.3,11.3s-1.2-9.3-3.3-11.4
			c-2.1-2.1-11.3-3.3-11.3-3.3s9.3-1.2,11.4-3.3c2.1-2.1,3.3-11.3,3.3-11.3S276.5,144.4,278.6,146.5z"/>
	</g>
	<text transform="matrix(1 0 0 1 21.0492 246.8177)"><tspan x="0" y="0" class="st0 st4 st5">Julián </tspan><tspan x="153.5" y="0" class="st3 st4 st5">Sánchez</tspan></text>
</g>
</svg>
